<svg width="181" height="34" viewBox="0 0 181 34" fill="none" xmlns="http://www.w3.org/2000/svg">
<g clip-path="url(#clip0_984_2)">
<path d="M68.1217 13.5468H63.6861V20.9781C63.6861 22.5564 64.5467 23.1483 66.0032 23.1483C66.4666 23.1483 66.93 23.0826 67.2611 22.951L66.9962 25.187C66.599 25.3843 66.0032 25.4501 65.4736 25.4501C62.9578 25.4501 60.9055 24.0033 60.9055 21.3069V13.5468H58.125V11.3108H60.9055V8.48294L63.6861 7.03613V11.3108H68.6513L68.1217 13.5468Z" fill="white"/>
<path d="M78.1839 14.2042C77.9191 14.1384 77.5881 14.0727 77.1909 14.0727C75.3372 14.0727 73.4173 14.9276 73.4173 18.15V25.1868H70.6367V11.3106H73.4173V14.1384C73.9469 12.1655 75.5358 11.1133 77.4557 11.1133C77.8529 11.1133 78.5149 11.179 78.8459 11.3106L78.1839 14.2042Z" fill="white"/>
<path d="M90.5643 25.1871V23.3457C89.9685 24.5952 88.7106 25.5159 86.2611 25.5159C83.2158 25.5159 80.9648 23.6088 80.9648 20.4521V11.2451H83.7454V20.189C83.7454 21.6358 84.6722 23.0826 86.9893 23.0826C89.2403 23.0826 90.3657 21.6358 90.3657 20.189V11.3109H93.2125V25.2529H90.5643V25.1871Z" fill="white"/>
<path d="M100.229 25.3847C98.6403 25.3847 97.3163 24.9901 96.3232 24.3983L95.9922 21.5046C96.9852 22.3596 98.6403 23.083 100.295 23.083C101.619 23.083 102.48 22.3596 102.48 21.5046C102.48 20.5839 101.818 20.0578 100.56 19.5975C97.8459 18.611 96.3232 17.3615 96.3232 15.1255C96.3232 12.8238 98.1769 11.1797 100.957 11.1797C102.546 11.1797 104.069 11.7058 104.599 12.1004L104.069 14.4021C103.407 13.9418 102.48 13.4814 100.957 13.4814C99.832 13.4814 99.1037 14.0733 99.1037 14.994C99.1037 15.8489 99.6996 16.2435 101.09 16.7696C103.87 17.7561 105.393 19.0056 105.393 21.4389C105.261 23.5433 103.606 25.3847 100.229 25.3847Z" fill="white"/>
<path d="M116.649 13.5468H112.213V20.9781C112.213 22.5564 113.074 23.1483 114.531 23.1483C114.994 23.1483 115.457 23.0826 115.788 22.951L115.524 25.187C115.126 25.3843 114.531 25.4501 114.001 25.4501C111.485 25.4501 109.433 24.0033 109.433 21.3069V13.5468H106.652V11.3108H109.433V8.48294L112.213 7.03613V11.3108H117.179L116.649 13.5468Z" fill="white"/>
<path d="M135.386 6.1156C134.724 5.85255 133.996 5.65526 133.334 5.65526C131.149 5.65526 130.023 6.97054 130.023 9.46957V11.2452H134.591L134.062 13.4812H130.09V25.1214H127.309V13.5469H124.926V11.311H127.309V9.40381C127.309 5.45796 129.56 3.35352 133.201 3.35352C134.26 3.35352 135.253 3.48504 135.982 3.81386L135.386 6.1156Z" fill="white"/>
<path d="M146.307 25.1871V23.3457C145.711 24.5952 144.453 25.5159 142.003 25.5159C138.958 25.5159 136.707 23.6088 136.707 20.4521V11.2451H139.488V20.189C139.488 21.6358 140.414 23.0826 142.732 23.0826C144.982 23.0826 146.108 21.6358 146.108 20.189V11.3109H148.888V25.2529H146.307V25.1871Z" fill="white"/>
<path d="M161.733 25.1875V16.3093C161.733 14.8625 160.806 13.4157 158.489 13.4157C156.238 13.4157 155.112 14.8625 155.112 16.3093V25.2532H152.266V11.3112H154.848V13.1526C155.443 11.9031 156.701 10.9824 159.151 10.9824C162.196 10.9824 164.447 12.8896 164.447 16.0463V25.2532H161.733V25.1875Z" fill="white"/>
<path d="M178.349 25.1872V23.6746C177.753 24.5953 176.429 25.516 174.112 25.516C171.001 25.516 167.359 23.0827 167.359 18.2162C167.359 13.9415 170.405 10.9164 174.443 10.9164C175.966 10.9164 177.687 11.5083 178.217 12.1001V3.35352H180.997V25.1872H178.349ZM178.217 14.8622C177.753 14.4019 176.628 13.4812 174.708 13.4812C172.192 13.4812 170.14 15.3883 170.14 18.2819C170.14 21.1756 172.192 23.1485 174.708 23.1485C176.495 23.1485 177.621 22.2278 178.217 21.3729V14.8622Z" fill="white"/>
<path d="M38.3988 7.36557H1.58969C0.861455 7.36557 0.265625 6.77369 0.265625 6.05029V1.31528C0.265625 0.591876 0.861455 0 1.58969 0H38.3988C39.127 0 39.7228 0.591876 39.7228 1.31528V5.98453C39.789 6.77369 39.1932 7.36557 38.3988 7.36557Z" fill="url(#paint0_linear_984_2)"/>
<path d="M39.7882 20.9128V32.2242C39.7882 32.7503 39.5896 33.1449 39.2586 33.4737L39.1924 33.5395C39.1924 33.5395 39.1262 33.6052 39.06 33.6052C38.729 33.8683 38.2655 33.9998 37.8021 33.9998C37.7359 33.9998 37.6697 33.9998 37.6035 33.9998C37.4049 33.9998 37.2063 33.9341 37.0739 33.8683L36.7429 33.7368H36.6767L19.9272 25.9766L3.04535 33.7368C2.78054 33.9341 2.44952 33.9998 2.0523 33.9998H1.85369C0.79444 33.9998 0 33.2107 0 32.2242V20.9128L19.9272 10.9824L39.7882 20.9128Z" fill="white"/>
<path d="M39.7868 20.9134V32.2248C39.7868 32.751 39.5882 33.1455 39.2572 33.4744L39.191 33.5401C39.191 33.5401 39.1248 33.6059 39.0586 33.6059C38.7275 33.8689 38.2641 34.0005 37.8007 34.0005C37.7345 34.0005 37.6683 34.0005 37.6021 34.0005C37.4035 34.0005 37.2049 33.9347 37.0725 33.8689L36.7414 33.7374H36.6752L19.9258 25.9773V11.0488L39.7868 20.9134Z" fill="url(#paint1_linear_984_2)"/>
</g>
<defs>
<linearGradient id="paint0_linear_984_2" x1="0.207763" y1="3.69436" x2="39.7791" y2="3.69436" gradientUnits="userSpaceOnUse">
<stop stop-color="white"/>
<stop offset="0.9944" stop-color="#CCE8F9"/>
</linearGradient>
<linearGradient id="paint1_linear_984_2" x1="29.8337" y1="34.0102" x2="29.8337" y2="11.0254" gradientUnits="userSpaceOnUse">
<stop stop-color="#F3F3F3"/>
<stop offset="1" stop-color="#CCE8F9"/>
</linearGradient>
<clipPath id="clip0_984_2">
<rect width="181" height="34" fill="white"/>
</clipPath>
</defs>
</svg>
